<svg width="33" height="32" viewBox="0 0 33 32" fill="none" xmlns="http://www.w3.org/2000/svg">
<g id="icon/intercom">
<path id="Vector" fill-rule="evenodd" clip-rule="evenodd" d="M23.1687 5.33331C24.6403 5.33331 25.8333 6.52185 25.8333 7.99519V21.6714C25.8333 21.733 25.8312 21.794 25.8271 21.8544L25.8211 26.765L20.1946 24.3333H9.83119C8.35959 24.3333 7.16663 23.1448 7.16663 21.6714V7.99519C7.16663 6.52507 8.36271 5.33331 9.83119 5.33331H23.1687ZM10.8172 18.7234C10.3293 18.275 10.0244 18.584 9.86313 18.7894C9.70188 18.9947 9.70786 19.3603 9.8531 19.6334C9.99834 19.9066 12.9392 21.6559 16.5984 21.6559C20.2575 21.6559 22.9747 19.9429 23.2031 19.6334C23.4316 19.324 23.5087 19.101 23.2031 18.8182C22.8976 18.5353 22.7779 18.6512 22.3817 18.83C21.9856 19.0089 19.3886 20.5539 16.5419 20.5277C13.6953 20.5014 11.3052 19.1719 10.8172 18.7234Z" fill="#0F0F0F"/>
</g>
</svg>
