<svg width="24" height="24" viewBox="0 0 24 24" fill="none" xmlns="http://www.w3.org/2000/svg">
<g id="icon/check">
<path id="Union" fill-rule="evenodd" clip-rule="evenodd" d="M17.5222 9.47484C17.9128 9.08432 17.9128 8.45116 17.5222 8.06063L17.1687 7.70708C16.7782 7.31655 16.145 7.31655 15.7545 7.70708L10.9816 12.48C10.591 12.8705 9.95788 12.8705 9.56736 12.48L8.47497 11.3876C8.08444 10.9971 7.45128 10.9971 7.06075 11.3876L6.7072 11.7411C6.31668 12.1317 6.31668 12.7648 6.7072 13.1554L8.50624 14.9544C8.50649 14.9546 8.50649 14.9551 8.50624 14.9553C8.50598 14.9556 8.50598 14.956 8.50624 14.9562L9.56643 16.0164C9.95696 16.407 10.5901 16.407 10.9806 16.0164L17.5222 9.47484Z" fill="white"/>
</g>
</svg>
