<svg width="20" height="20" viewBox="0 0 20 20" fill="none" xmlns="http://www.w3.org/2000/svg">
<g id="icon/close">
<path id="Union" fill-rule="evenodd" clip-rule="evenodd" d="M15.8845 5.51359C16.275 5.12307 16.275 4.4899 15.8845 4.09938L15.8256 4.04045C15.435 3.64993 14.8019 3.64993 14.4114 4.04045L10.6696 7.78218C10.2791 8.17271 9.64593 8.17271 9.25541 7.78218L5.51368 4.04045C5.12315 3.64993 4.48999 3.64993 4.09946 4.04045L4.04054 4.09938C3.65001 4.4899 3.65001 5.12307 4.04054 5.51359L7.78227 9.25532C8.17279 9.64585 8.17279 10.279 7.78227 10.6695L4.04045 14.4114C3.64993 14.8019 3.64993 15.435 4.04045 15.8256L4.09938 15.8845C4.4899 16.275 5.12307 16.275 5.51359 15.8845L9.25541 12.1427C9.64593 11.7522 10.2791 11.7522 10.6696 12.1427L14.4114 15.8845C14.802 16.275 15.4351 16.275 15.8256 15.8845L15.8846 15.8256C16.2751 15.435 16.2751 14.8019 15.8846 14.4114L12.1428 10.6695C11.7522 10.279 11.7522 9.64585 12.1428 9.25532L15.8845 5.51359Z" fill="#101111"/>
</g>
</svg>
